<?xml version="1.0" standalone="no"?>
<!DOCTYPE svg PUBLIC "-//W3C//DTD SVG 20010904//EN"
 "http://www.w3.org/TR/2001/REC-SVG-20010904/DTD/svg10.dtd">
<svg version="1.0" xmlns="http://www.w3.org/2000/svg"
 width="512.000000pt" height="512.000000pt" viewBox="0 0 512.000000 512.000000"
 preserveAspectRatio="xMidYMid meet">
<metadata>
Created by potrace 1.14, written by Peter Selinger 2001-2017
</metadata>
<g transform="translate(0.000000,512.000000) scale(0.100000,-0.100000)"
fill="#000000" stroke="none">
<path d="M1830 4937 c-3 -3 -36 -7 -75 -11 -131 -11 -312 -53 -452 -105 -337
-124 -634 -336 -860 -613 -140 -171 -268 -402 -336 -608 -48 -143 -56 -175
-78 -305 -5 -33 -12 -71 -15 -85 -13 -57 -11 -398 2 -495 40 -287 148 -586
297 -817 208 -322 534 -600 871 -743 37 -16 70 -34 71 -39 2 -6 6 -40 9 -76
30 -370 282 -690 637 -810 74 -25 80 -27 174 -41 253 -37 535 45 730 211 48
41 135 132 135 141 0 17 28 9 116 -35 100 -49 240 -97 359 -122 110 -23 362
-27 480 -8 87 14 195 39 225 51 8 3 20 7 25 8 30 8 131 52 210 93 139 72 281
185 415 330 116 126 234 343 290 534 44 153 58 258 55 436 -3 222 -44 395
-143 602 -55 114 -183 295 -268 378 l-24 23 20 37 c95 176 149 411 148 642 -1
110 -22 283 -43 349 -3 10 -8 28 -10 38 -8 40 -60 173 -96 245 -80 160 -172
282 -311 414 -203 191 -495 332 -773 370 -128 17 -357 11 -481 -14 -172 -35
-338 -101 -495 -199 -20 -13 -42 -23 -50 -23 -7 0 -77 25 -156 56 -139 55
-143 57 -143 86 0 85 -39 100 -270 105 -102 2 -188 2 -190 0z"/>
</g>
</svg>
